<svg width="34" height="34" viewBox="0 0 34 34" fill="none" xmlns="http://www.w3.org/2000/svg">
<rect width="34" height="34" rx="8" fill="#1B1B1B"/>
<path d="M9.6875 13.6249C9.68772 13.5264 9.71382 13.4297 9.76318 13.3444C9.81254 13.2592 9.88343 13.1883 9.96875 13.1391L16.7188 9.20158C16.8048 9.15143 16.9025 9.125 17.0021 9.125C17.1017 9.125 17.1995 9.15143 17.2855 9.20158L24.0355 13.1391C24.1204 13.1886 24.1908 13.2596 24.2398 13.3448C24.2887 13.43 24.3145 13.5266 24.3145 13.6249C24.3145 13.7233 24.2887 13.8198 24.2398 13.9051C24.1908 13.9903 24.1204 14.0613 24.0355 14.1108L17.2855 18.0483C17.1995 18.0985 17.1017 18.1249 17.0021 18.1249C16.9025 18.1249 16.8048 18.0985 16.7188 18.0483L9.96875 14.1108C9.88343 14.0615 9.81254 13.9907 9.76318 13.9055C9.71382 13.8202 9.68772 13.7235 9.6875 13.6249ZM23.4688 16.5141L17 20.2864L10.5312 16.5141C10.4032 16.4503 10.2556 16.4377 10.1186 16.4789C9.98157 16.5201 9.8654 16.612 9.79372 16.7358C9.72204 16.8596 9.70024 17.0061 9.73276 17.1455C9.76528 17.2848 9.84967 17.4065 9.96875 17.4858L16.7188 21.4233C16.8048 21.4735 16.9025 21.4999 17.0021 21.4999C17.1017 21.4999 17.1995 21.4735 17.2855 21.4233L24.0355 17.4858C24.1003 17.4491 24.1572 17.3999 24.2029 17.3411C24.2485 17.2822 24.2821 17.2149 24.3015 17.143C24.3209 17.0711 24.3259 16.996 24.3161 16.9222C24.3063 16.8483 24.2819 16.7772 24.2444 16.7128C24.2069 16.6485 24.1569 16.5922 24.0975 16.5474C24.038 16.5025 23.9703 16.4698 23.8981 16.4513C23.826 16.4328 23.7508 16.4289 23.6771 16.4396C23.6034 16.4504 23.5326 16.4757 23.4688 16.5141ZM24.3125 21.4999H23.1875V20.3749C23.1875 20.2258 23.1282 20.0827 23.0227 19.9772C22.9173 19.8717 22.7742 19.8124 22.625 19.8124C22.4758 19.8124 22.3327 19.8717 22.2273 19.9772C22.1218 20.0827 22.0625 20.2258 22.0625 20.3749V21.4999H20.9375C20.7883 21.4999 20.6452 21.5592 20.5398 21.6647C20.4343 21.7702 20.375 21.9133 20.375 22.0624C20.375 22.2116 20.4343 22.3547 20.5398 22.4602C20.6452 22.5657 20.7883 22.6249 20.9375 22.6249H22.0625V23.7499C22.0625 23.8991 22.1218 24.0422 22.2273 24.1477C22.3327 24.2532 22.4758 24.3124 22.625 24.3124C22.7742 24.3124 22.9173 24.2532 23.0227 24.1477C23.1282 24.0422 23.1875 23.8991 23.1875 23.7499V22.6249H24.3125C24.4617 22.6249 24.6048 22.5657 24.7102 22.4602C24.8157 22.3547 24.875 22.2116 24.875 22.0624C24.875 21.9133 24.8157 21.7702 24.7102 21.6647C24.6048 21.5592 24.4617 21.4999 24.3125 21.4999ZM17.8438 23.1706L17 23.6628L10.5312 19.8891C10.4032 19.8253 10.2556 19.8127 10.1186 19.8539C9.98157 19.8951 9.8654 19.987 9.79372 20.1108C9.72204 20.2346 9.70024 20.3811 9.73276 20.5205C9.76528 20.6598 9.84967 20.7815 9.96875 20.8608L16.7188 24.7983C16.8048 24.8485 16.9025 24.8749 17.0021 24.8749C17.1017 24.8749 17.1995 24.8485 17.2855 24.7983L18.4105 24.1423C18.4753 24.1056 18.5322 24.0564 18.5779 23.9976C18.6235 23.9387 18.6571 23.8714 18.6765 23.7995C18.6959 23.7276 18.7009 23.6525 18.6911 23.5787C18.6813 23.5048 18.6569 23.4337 18.6194 23.3693C18.5819 23.305 18.5319 23.2487 18.4725 23.2038C18.413 23.1589 18.3453 23.1263 18.2731 23.1078C18.201 23.0893 18.1258 23.0854 18.0521 23.0961C17.9784 23.1069 17.9076 23.1322 17.8438 23.1706Z" fill="white"/>
</svg>
