<svg width="34" height="34" viewBox="0 0 34 34" fill="none" xmlns="http://www.w3.org/2000/svg">
<rect width="34" height="34" rx="8" fill="#1B1B1B"/>
<path d="M22.0625 10.8125H19.8125C19.8125 10.5141 19.694 10.228 19.483 10.017C19.272 9.80603 18.9859 9.6875 18.6875 9.6875H10.25C9.95163 9.6875 9.66548 9.80603 9.4545 10.017C9.24353 10.228 9.125 10.5141 9.125 10.8125V16.4375C9.125 16.7359 9.24353 17.022 9.4545 17.233C9.66548 17.444 9.95163 17.5625 10.25 17.5625H10.8125V22.0625C10.8125 22.3609 10.931 22.647 11.142 22.858C11.353 23.069 11.6391 23.1875 11.9375 23.1875H22.0625C22.3609 23.1875 22.647 23.069 22.858 22.858C23.069 22.647 23.1875 22.3609 23.1875 22.0625V11.9375C23.1875 11.6391 23.069 11.353 22.858 11.142C22.647 10.931 22.3609 10.8125 22.0625 10.8125ZM15.477 12.3355C15.3715 12.2299 15.3122 12.0868 15.3122 11.9375C15.3122 11.7882 15.3715 11.6451 15.477 11.5395C15.5826 11.434 15.7257 11.3747 15.875 11.3747C16.0243 11.3747 16.1674 11.434 16.273 11.5395L17.9605 13.227C18.0128 13.2793 18.0543 13.3413 18.0826 13.4096C18.1109 13.4779 18.1254 13.5511 18.1254 13.625C18.1254 13.6989 18.1109 13.7721 18.0826 13.8404C18.0543 13.9087 18.0128 13.9707 17.9605 14.023L16.273 15.7105C16.1674 15.816 16.0243 15.8753 15.875 15.8753C15.7257 15.8753 15.5826 15.816 15.477 15.7105C15.3715 15.6049 15.3122 15.4618 15.3122 15.3125C15.3122 15.1632 15.3715 15.0201 15.477 14.9145L16.7673 13.625L15.477 12.3355ZM10.977 14.023C10.9247 13.9707 10.8832 13.9087 10.8549 13.8404C10.8266 13.7721 10.8121 13.6989 10.8121 13.625C10.8121 13.5511 10.8266 13.4779 10.8549 13.4096C10.8832 13.3413 10.9247 13.2793 10.977 13.227L12.6645 11.5395C12.7701 11.434 12.9132 11.3747 13.0625 11.3747C13.2118 11.3747 13.3549 11.434 13.4605 11.5395C13.566 11.6451 13.6253 11.7882 13.6253 11.9375C13.6253 12.0868 13.566 12.2299 13.4605 12.3355L12.1702 13.625L13.4605 14.9145C13.566 15.0201 13.6253 15.1632 13.6253 15.3125C13.6253 15.4618 13.566 15.6049 13.4605 15.7105C13.3549 15.816 13.2118 15.8753 13.0625 15.8753C12.9132 15.8753 12.7701 15.816 12.6645 15.7105L10.977 14.023ZM22.0625 22.0625H11.9375V17.5625H18.6875C18.9859 17.5625 19.272 17.444 19.483 17.233C19.694 17.022 19.8125 16.7359 19.8125 16.4375V11.9375H22.0625V22.0625Z" fill="white"/>
</svg>
