<svg width="34" height="34" viewBox="0 0 34 34" fill="none" xmlns="http://www.w3.org/2000/svg">
<rect width="34" height="34" rx="8" fill="#1B1B1B"/>
<path d="M22.625 10.25H11.375C11.0766 10.25 10.7905 10.3685 10.5795 10.5795C10.3685 10.7905 10.25 11.0766 10.25 11.375V22.625C10.25 22.9234 10.3685 23.2095 10.5795 23.4205C10.7905 23.6315 11.0766 23.75 11.375 23.75H22.625C22.9234 23.75 23.2095 23.6315 23.4205 23.4205C23.6315 23.2095 23.75 22.9234 23.75 22.625V11.375C23.75 11.0766 23.6315 10.7905 23.4205 10.5795C23.2095 10.3685 22.9234 10.25 22.625 10.25ZM16.273 18.523L14.023 20.773C13.9707 20.8253 13.9087 20.8668 13.8404 20.8951C13.7721 20.9234 13.6989 20.9379 13.625 20.9379C13.5511 20.9379 13.4779 20.9234 13.4096 20.8951C13.3413 20.8668 13.2793 20.8253 13.227 20.773L12.102 19.648C11.9965 19.5424 11.9372 19.3993 11.9372 19.25C11.9372 19.1007 11.9965 18.9576 12.102 18.852C12.2076 18.7465 12.3507 18.6872 12.5 18.6872C12.6493 18.6872 12.7924 18.7465 12.898 18.852L13.625 19.5798L15.477 17.727C15.5826 17.6215 15.7257 17.5622 15.875 17.5622C16.0243 17.5622 16.1674 17.6215 16.273 17.727C16.3785 17.8326 16.4378 17.9757 16.4378 18.125C16.4378 18.2743 16.3785 18.4174 16.273 18.523ZM16.273 14.023L14.023 16.273C13.9707 16.3253 13.9087 16.3668 13.8404 16.3951C13.7721 16.4234 13.6989 16.4379 13.625 16.4379C13.5511 16.4379 13.4779 16.4234 13.4096 16.3951C13.3413 16.3668 13.2793 16.3253 13.227 16.273L12.102 15.148C12.0498 15.0957 12.0083 15.0337 11.98 14.9654C11.9517 14.8971 11.9372 14.8239 11.9372 14.75C11.9372 14.6007 11.9965 14.4576 12.102 14.352C12.2076 14.2465 12.3507 14.1872 12.5 14.1872C12.6493 14.1872 12.7924 14.2465 12.898 14.352L13.625 15.0798L15.477 13.227C15.5826 13.1215 15.7257 13.0622 15.875 13.0622C16.0243 13.0622 16.1674 13.1215 16.273 13.227C16.3785 13.3326 16.4378 13.4757 16.4378 13.625C16.4378 13.7743 16.3785 13.9174 16.273 14.023ZM21.5 19.8125H18.125C17.9758 19.8125 17.8327 19.7532 17.7273 19.6477C17.6218 19.5423 17.5625 19.3992 17.5625 19.25C17.5625 19.1008 17.6218 18.9577 17.7273 18.8523C17.8327 18.7468 17.9758 18.6875 18.125 18.6875H21.5C21.6492 18.6875 21.7923 18.7468 21.8977 18.8523C22.0032 18.9577 22.0625 19.1008 22.0625 19.25C22.0625 19.3992 22.0032 19.5423 21.8977 19.6477C21.7923 19.7532 21.6492 19.8125 21.5 19.8125ZM21.5 15.3125H18.125C17.9758 15.3125 17.8327 15.2532 17.7273 15.1477C17.6218 15.0423 17.5625 14.8992 17.5625 14.75C17.5625 14.6008 17.6218 14.4577 17.7273 14.3523C17.8327 14.2468 17.9758 14.1875 18.125 14.1875H21.5C21.6492 14.1875 21.7923 14.2468 21.8977 14.3523C22.0032 14.4577 22.0625 14.6008 22.0625 14.75C22.0625 14.8992 22.0032 15.0423 21.8977 15.1477C21.7923 15.2532 21.6492 15.3125 21.5 15.3125Z" fill="white"/>
</svg>
