<svg width="34" height="34" viewBox="0 0 34 34" fill="none" xmlns="http://www.w3.org/2000/svg">
<rect width="34" height="34" rx="8" fill="#1B1B1B"/>
<path d="M22.625 10.8125H11.375C11.0766 10.8125 10.7905 10.931 10.5795 11.142C10.3685 11.353 10.25 11.6391 10.25 11.9375V15.875C10.25 19.5819 12.0444 21.8284 13.5498 23.0602C15.1712 24.3863 16.7841 24.837 16.8545 24.8553C16.9511 24.8816 17.0531 24.8816 17.1498 24.8553C17.2201 24.837 18.8309 24.3863 20.4545 23.0602C21.9556 21.8284 23.75 19.5819 23.75 15.875V11.9375C23.75 11.6391 23.6315 11.353 23.4205 11.142C23.2095 10.931 22.9234 10.8125 22.625 10.8125ZM17 23.7233C16.0052 23.3759 15.079 22.8569 14.2634 22.1898C12.6287 20.8524 11.6823 19.1094 11.4383 17H17V11.9375H22.625V15.875C22.6252 16.2509 22.6041 16.6265 22.5617 17H17V23.7233Z" fill="white"/>
</svg>
