<svg width="34" height="34" viewBox="0 0 34 34" fill="none" xmlns="http://www.w3.org/2000/svg">
<rect width="34" height="34" rx="6" fill="#1B1B1B"/>
<path d="M23.75 16.4378H22.625V15.3128H23.75C23.8992 15.3128 24.0423 15.3721 24.1477 15.4776C24.2532 15.5831 24.3125 15.7261 24.3125 15.8753C24.3125 16.0245 24.2532 16.1676 24.1477 16.2731C24.0423 16.3785 23.8992 16.4378 23.75 16.4378ZM10.25 15.3128C10.1008 15.3128 9.95774 15.3721 9.85225 15.4776C9.74676 15.5831 9.6875 15.7261 9.6875 15.8753C9.6875 16.0245 9.74676 16.1676 9.85225 16.2731C9.95774 16.3785 10.1008 16.4378 10.25 16.4378H11.375V15.3128H10.25ZM22.625 19.2503C22.625 19.4402 22.6152 19.6279 22.5969 19.8128H23.75C23.8992 19.8128 24.0423 19.8721 24.1477 19.9776C24.2532 20.0831 24.3125 20.2261 24.3125 20.3753C24.3125 20.5245 24.2532 20.6676 24.1477 20.7731C24.0423 20.8786 23.8992 20.9378 23.75 20.9378H22.3663C22.0073 22.0799 21.2934 23.0777 20.3283 23.7861C19.3631 24.4944 18.1972 24.8764 17 24.8764C15.8028 24.8764 14.6369 24.4944 13.6717 23.7861C12.7066 23.0777 11.9927 22.0799 11.6337 20.9378H10.25C10.1008 20.9378 9.95774 20.8786 9.85225 20.7731C9.74676 20.6676 9.6875 20.5245 9.6875 20.3753C9.6875 20.2261 9.74676 20.0831 9.85225 19.9776C9.95774 19.8721 10.1008 19.8128 10.25 19.8128H11.4031C11.3848 19.6279 11.375 19.4402 11.375 19.2503V18.6878H10.25C10.1008 18.6878 9.95774 18.6285 9.85225 18.5231C9.74676 18.4176 9.6875 18.2745 9.6875 18.1253C9.6875 17.9761 9.74676 17.8331 9.85225 17.7276C9.95774 17.6221 10.1008 17.5628 10.25 17.5628H11.375V16.4378H22.625V17.5628H23.75C23.8992 17.5628 24.0423 17.6221 24.1477 17.7276C24.2532 17.8331 24.3125 17.9761 24.3125 18.1253C24.3125 18.2745 24.2532 18.4176 24.1477 18.5231C24.0423 18.6285 23.8992 18.6878 23.75 18.6878H22.625V19.2503ZM17.5625 18.1253C17.5625 17.9761 17.5032 17.8331 17.3977 17.7276C17.2923 17.6221 17.1492 17.5628 17 17.5628C16.8508 17.5628 16.7077 17.6221 16.6023 17.7276C16.4968 17.8331 16.4375 17.9761 16.4375 18.1253V22.6253C16.4375 22.7745 16.4968 22.9176 16.6023 23.0231C16.7077 23.1286 16.8508 23.1878 17 23.1878C17.1492 23.1878 17.2923 23.1286 17.3977 23.0231C17.5032 22.9176 17.5625 22.7745 17.5625 22.6253V18.1253ZM12.9106 12.0187C12.0575 12.9197 11.5274 14.0782 11.4031 15.3128H22.5969C22.4726 14.0782 21.9425 12.9197 21.0894 12.0187L22.4605 10.6483C22.566 10.5427 22.6253 10.3996 22.6253 10.2503C22.6253 10.101 22.566 9.95789 22.4605 9.85234C22.3549 9.7468 22.2118 9.6875 22.0625 9.6875C21.9132 9.6875 21.7701 9.7468 21.6645 9.85234L20.2379 11.2797C19.291 10.6099 18.1598 10.2502 17 10.2502C15.8402 10.2502 14.709 10.6099 13.7621 11.2797L12.3355 9.85234C12.2299 9.7468 12.0868 9.6875 11.9375 9.6875C11.7882 9.6875 11.6451 9.7468 11.5395 9.85234C11.434 9.95789 11.3747 10.101 11.3747 10.2503C11.3747 10.3996 11.434 10.5427 11.5395 10.6483L12.9106 12.0187Z" fill="white"/>
</svg>
