<svg width="34" height="34" viewBox="0 0 34 34" fill="none" xmlns="http://www.w3.org/2000/svg">
<rect width="34" height="34" rx="8" fill="#1B1B1B"/>
<path d="M23.75 12.4998C23.7498 12.0791 23.6316 11.6668 23.4088 11.3098C23.1861 10.9528 22.8677 10.6655 22.4898 10.4804C22.1119 10.2953 21.6897 10.2198 21.2711 10.2627C20.8525 10.3055 20.4543 10.4648 20.1217 10.7225C19.7891 10.9803 19.5355 11.3262 19.3896 11.7208C19.2437 12.1155 19.2114 12.5432 19.2963 12.9553C19.3813 13.3674 19.5801 13.7474 19.8702 14.0522C20.1603 14.357 20.5301 14.5743 20.9375 14.6795V15.8748C20.9375 16.024 20.8782 16.1671 20.7728 16.2726C20.6673 16.3781 20.5242 16.4373 20.375 16.4373H13.625C13.4758 16.4373 13.3327 16.3781 13.2273 16.2726C13.1218 16.1671 13.0625 16.024 13.0625 15.8748V14.6795C13.5928 14.5426 14.0549 14.217 14.3622 13.7638C14.6696 13.3105 14.8011 12.7607 14.7321 12.2175C14.6631 11.6742 14.3983 11.1747 13.9874 10.8127C13.5765 10.4507 13.0476 10.251 12.5 10.251C11.9524 10.251 11.4235 10.4507 11.0126 10.8127C10.6017 11.1747 10.3369 11.6742 10.2679 12.2175C10.1989 12.7607 10.3304 13.3105 10.6378 13.7638C10.9451 14.217 11.4073 14.5426 11.9375 14.6795V15.8748C11.9375 16.3224 12.1153 16.7516 12.4318 17.0681C12.7482 17.3846 13.1775 17.5623 13.625 17.5623H16.4375V19.3202C15.9073 19.4571 15.4451 19.7827 15.1378 20.2359C14.8304 20.6892 14.6989 21.2389 14.7679 21.7822C14.8369 22.3255 15.1017 22.8249 15.5126 23.187C15.9235 23.549 16.4524 23.7487 17 23.7487C17.5476 23.7487 18.0765 23.549 18.4874 23.187C18.8983 22.8249 19.1631 22.3255 19.2321 21.7822C19.3011 21.2389 19.1696 20.6892 18.8622 20.2359C18.5549 19.7827 18.0928 19.4571 17.5625 19.3202V17.5623H20.375C20.8226 17.5623 21.2518 17.3846 21.5682 17.0681C21.8847 16.7516 22.0625 16.3224 22.0625 15.8748V14.6795C22.5453 14.5541 22.9729 14.2721 23.2783 13.8777C23.5836 13.4833 23.7495 12.9987 23.75 12.4998ZM18.125 21.4998C18.125 21.7223 18.059 21.9399 17.9354 22.1249C17.8118 22.3099 17.6361 22.4541 17.4305 22.5392C17.225 22.6244 16.9988 22.6466 16.7805 22.6032C16.5623 22.5598 16.3618 22.4527 16.2045 22.2953C16.0472 22.138 15.94 21.9375 15.8966 21.7193C15.8532 21.5011 15.8755 21.2749 15.9606 21.0693C16.0458 20.8638 16.19 20.6881 16.375 20.5644C16.56 20.4408 16.7775 20.3748 17 20.3748C17.2984 20.3748 17.5845 20.4934 17.7955 20.7043C18.0065 20.9153 18.125 21.2015 18.125 21.4998Z" fill="white"/>
</svg>
