<svg width="34" height="34" viewBox="0 0 34 34" fill="none" xmlns="http://www.w3.org/2000/svg">
<rect width="34" height="34" rx="8" fill="#1B1B1B"/>
<path d="M22.906 22.0625C22.9061 22.432 22.8252 22.7969 22.6692 23.1318C22.5132 23.4667 22.2857 23.7634 22.0029 24.001C21.72 24.2387 21.3885 24.4115 21.0317 24.5074C20.6749 24.6032 20.3014 24.6199 19.9375 24.556C19.5736 24.4922 19.2281 24.3495 18.9252 24.1379C18.6224 23.9264 18.3695 23.6511 18.1843 23.3313C17.9992 23.0116 17.8863 22.6553 17.8535 22.2873C17.8207 21.9193 17.8689 21.5486 17.9947 21.2012L14.2681 18.807C13.9122 19.1562 13.4611 19.3924 12.9715 19.4861C12.4818 19.5798 11.9754 19.5269 11.5157 19.3339C11.056 19.1409 10.6635 18.8164 10.3876 18.4012C10.1116 17.986 9.96436 17.4986 9.96436 17C9.96436 16.5014 10.1116 16.014 10.3876 15.5988C10.6635 15.1836 11.056 14.8591 11.5157 14.6661C11.9754 14.4731 12.4818 14.4202 12.9715 14.5139C13.4611 14.6076 13.9122 14.8439 14.2681 15.193L17.9947 12.8023C17.7813 12.216 17.7914 11.5715 18.0232 10.9922C18.2549 10.4128 18.692 9.93912 19.2509 9.66165C19.8098 9.38418 20.4514 9.32238 21.053 9.48804C21.6546 9.6537 22.1741 10.0352 22.5121 10.5597C22.8502 11.0842 22.9832 11.7148 22.8857 12.3311C22.7882 12.9475 22.467 13.5063 21.9835 13.9007C21.5 14.2952 20.8881 14.4977 20.2647 14.4695C19.6414 14.4414 19.0503 14.1845 18.6043 13.7481L14.8777 16.1422C15.0791 16.6988 15.0791 17.3083 14.8777 17.8648L18.6043 20.259C18.9601 19.9108 19.4107 19.6752 19.8997 19.5818C20.3887 19.4883 20.8944 19.5412 21.3535 19.7336C21.8126 19.9261 22.2048 20.2497 22.4809 20.664C22.7571 21.0782 22.9049 21.5647 22.906 22.0625Z" fill="white"/>
</svg>
