<svg width="34" height="34" viewBox="0 0 34 34" fill="none" xmlns="http://www.w3.org/2000/svg">
<rect width="34" height="34" rx="8" fill="#1B1B1B"/>
<path d="M19.8125 23.75C19.8125 23.8992 19.7532 24.0423 19.6477 24.1477C19.5423 24.2532 19.3992 24.3125 19.25 24.3125H14.75C14.6008 24.3125 14.4577 24.2532 14.3523 24.1477C14.2468 24.0423 14.1875 23.8992 14.1875 23.75C14.1875 23.6008 14.2468 23.4577 14.3523 23.3523C14.4577 23.2468 14.6008 23.1875 14.75 23.1875H19.25C19.3992 23.1875 19.5423 23.2468 19.6477 23.3523C19.7532 23.4577 19.8125 23.6008 19.8125 23.75ZM24.3125 12.5V20.375C24.3125 20.8226 24.1347 21.2518 23.8182 21.5682C23.5018 21.8847 23.0726 22.0625 22.625 22.0625H11.375C10.9274 22.0625 10.4982 21.8847 10.1818 21.5682C9.86529 21.2518 9.6875 20.8226 9.6875 20.375V12.5C9.6875 12.0524 9.86529 11.6232 10.1818 11.3068C10.4982 10.9903 10.9274 10.8125 11.375 10.8125H22.625C23.0726 10.8125 23.5018 10.9903 23.8182 11.3068C24.1347 11.6232 24.3125 12.0524 24.3125 12.5ZM19.0855 15.477L17.398 13.7895C17.3457 13.7372 17.2837 13.6957 17.2154 13.6674C17.1471 13.6391 17.0739 13.6246 17 13.6246C16.9261 13.6246 16.8529 13.6391 16.7846 13.6674C16.7163 13.6957 16.6543 13.7372 16.602 13.7895L14.9145 15.477C14.809 15.5826 14.7497 15.7257 14.7497 15.875C14.7497 16.0243 14.809 16.1674 14.9145 16.273C15.0201 16.3785 15.1632 16.4378 15.3125 16.4378C15.4618 16.4378 15.6049 16.3785 15.7105 16.273L16.4375 15.5452V18.6875C16.4375 18.8367 16.4968 18.9798 16.6023 19.0852C16.7077 19.1907 16.8508 19.25 17 19.25C17.1492 19.25 17.2923 19.1907 17.3977 19.0852C17.5032 18.9798 17.5625 18.8367 17.5625 18.6875V15.5452L18.2895 16.273C18.3418 16.3252 18.4038 16.3667 18.4721 16.395C18.5404 16.4233 18.6136 16.4378 18.6875 16.4378C18.7614 16.4378 18.8346 16.4233 18.9029 16.395C18.9712 16.3667 19.0332 16.3252 19.0855 16.273C19.1377 16.2207 19.1792 16.1587 19.2075 16.0904C19.2358 16.0221 19.2503 15.9489 19.2503 15.875C19.2503 15.8011 19.2358 15.7279 19.2075 15.6596C19.1792 15.5913 19.1377 15.5293 19.0855 15.477Z" fill="white"/>
</svg>
