<svg width="34" height="34" viewBox="0 0 34 34" fill="none" xmlns="http://www.w3.org/2000/svg">
<rect width="34" height="34" rx="8" fill="#1B1B1B"/>
<path d="M23.75 17.0004C23.75 17.1496 23.6907 17.2927 23.5852 17.3982C23.4798 17.5037 23.3367 17.5629 23.1875 17.5629H15.875C15.7258 17.5629 15.5827 17.5037 15.4773 17.3982C15.3718 17.2927 15.3125 17.1496 15.3125 17.0004C15.3125 16.8513 15.3718 16.7082 15.4773 16.6027C15.5827 16.4972 15.7258 16.4379 15.875 16.4379H23.1875C23.3367 16.4379 23.4798 16.4972 23.5852 16.6027C23.6907 16.7082 23.75 16.8513 23.75 17.0004ZM15.875 13.0629H23.1875C23.3367 13.0629 23.4798 13.0037 23.5852 12.8982C23.6907 12.7927 23.75 12.6496 23.75 12.5004C23.75 12.3513 23.6907 12.2082 23.5852 12.1027C23.4798 11.9972 23.3367 11.9379 23.1875 11.9379H15.875C15.7258 11.9379 15.5827 11.9972 15.4773 12.1027C15.3718 12.2082 15.3125 12.3513 15.3125 12.5004C15.3125 12.6496 15.3718 12.7927 15.4773 12.8982C15.5827 13.0037 15.7258 13.0629 15.875 13.0629ZM23.1875 20.9379H10.8125C10.6633 20.9379 10.5202 20.9972 10.4148 21.1027C10.3093 21.2082 10.25 21.3513 10.25 21.5004C10.25 21.6496 10.3093 21.7927 10.4148 21.8982C10.5202 22.0037 10.6633 22.0629 10.8125 22.0629H23.1875C23.3367 22.0629 23.4798 22.0037 23.5852 21.8982C23.6907 21.7927 23.75 21.6496 23.75 21.5004C23.75 21.3513 23.6907 21.2082 23.5852 21.1027C23.4798 20.9972 23.3367 20.9379 23.1875 20.9379ZM10.5973 18.0826C10.7001 18.1252 10.8132 18.1364 10.9224 18.1147C11.0315 18.0931 11.1318 18.0396 11.2105 17.9609L14.023 15.1484C14.0753 15.0962 14.1168 15.0341 14.1451 14.9658C14.1734 14.8976 14.1879 14.8244 14.1879 14.7504C14.1879 14.6765 14.1734 14.6033 14.1451 14.535C14.1168 14.4668 14.0753 14.4047 14.023 14.3525L11.2105 11.54C11.1318 11.4612 11.0315 11.4076 10.9224 11.3858C10.8132 11.3641 10.7 11.3752 10.5972 11.4178C10.4943 11.4605 10.4065 11.5326 10.3447 11.6252C10.2829 11.7178 10.2499 11.8266 10.25 11.9379V17.5629C10.25 17.6742 10.283 17.7829 10.3449 17.8754C10.4067 17.9679 10.4946 18.04 10.5973 18.0826Z" fill="white"/>
</svg>
